<svg width="30" height="13" viewBox="0 0 30 13" fill="none" xmlns="http://www.w3.org/2000/svg">
<path fill-rule="evenodd" clip-rule="evenodd" d="M28.8721 6.53512C29.5206 5.71332 28.9829 4.34982 27.7295 5.08991C23.249 3.06454 18.4917 2.3827 13.9221 0.797346C13.1018 1.17597 13.4096 1.8333 13.3072 2.38976C16.9547 3.55816 20.6889 4.30797 24.3216 5.55192C17.958 6.48794 11.4132 6.2769 5.24486 4.82379C4.34935 4.61273 3.13341 4.20383 2.55809 4.23142C2.37827 3.9381 2.25611 4.01216 1.84842 3.83876C1.00449 4.0289 0.659502 4.8737 0.8468 5.5521C2.29648 5.9861 3.78145 6.23042 5.2604 6.5005C6.72943 6.76614 8.21707 7.1391 9.73091 7.17136C10.1682 7.4971 10.7413 7.16155 11.1845 7.45953C11.3512 7.2576 11.7763 7.55719 11.7355 7.23144C15.4634 8.0704 20.0507 7.45816 24.1179 7.24781C21.4808 8.40745 17.684 9.67454 14.8087 11.1907C14.3015 11.5526 14.3415 12.7496 14.7423 12.9175C15.2285 13.1222 17.0468 12.3322 17.8776 12.0227C21.6602 10.6164 26.1863 9.06072 28.8721 6.53512Z" fill="#434343"/>
</svg>
